<?xml version="1.0" encoding="utf-8"?>
<svg xmlns="http://www.w3.org/2000/svg" xmlns:xlink="http://www.w3.org/1999/xlink" width="864pt" height="259.2pt" viewBox="0 0 864 259.2" version="1.1"><defs><style type="text/css">*{stroke-linejoin: round; stroke-linecap: butt}</style></defs><path d="M 0 259.2 L 864 259.2 L 864 0 L 0 0 z" style="fill: #ffffff"/><path d="M 51.6 198.7 L 309.2 198.7 L 309.2 24.7 L 51.6 24.7 z" style="fill: #ffffff"/><path d="M 63.3 153.5 L 102.3 153.5 L 102.3 153.5 L 63.3 153.5 z" style="fill: #2a9d8f; stroke: #222222; stroke-linejoin: miter"/><path d="M 112.1 153.5 L 151.1 153.5 L 151.1 93.4 L 112.1 93.4 z" style="fill: #2a9d8f; stroke: #222222; stroke-linejoin: miter"/><path d="M 160.9 153.5 L 199.9 153.5 L 199.9 34.1 L 160.9 34.1 z" style="fill: #2a9d8f; stroke: #222222; stroke-linejoin: miter"/><path d="M 209.7 153.5 L 248.7 153.5 L 248.7 32.6 L 209.7 32.6 z" style="fill: #2a9d8f; stroke: #222222; stroke-linejoin: miter"/><path d="M 258.5 153.5 L 297.5 153.5 L 297.5 34.1 L 258.5 34.1 z" style="fill: #2a9d8f; stroke: #222222; stroke-linejoin: miter"/><defs><path id="m66a584b091" d="M 0 0 L 0 3.5" style="stroke: #000000; stroke-width: 0.8"/></defs><use xlink:href="#m66a584b091" x="82.8" y="198.7" style="stroke: #000000; stroke-width: 0.8"/><text style="font-size: 8px; font-family: sans-serif" transform="translate(66.1 246.3) rotate(-45)">exact_match</text><use xlink:href="#m66a584b091" x="131.6" y="198.7" style="stroke: #000000; stroke-width: 0.8"/><text style="font-size: 8px; font-family: sans-serif" transform="translate(120.9 234.3) rotate(-45)">token_f1</text><use xlink:href="#m66a584b091" x="180.4" y="198.7" style="stroke: #000000; stroke-width: 0.8"/><text style="font-size: 8px; font-family: sans-serif" transform="translate(169.9 234) rotate(-45)">contains</text><use xlink:href="#m66a584b091" x="229.2" y="198.7" style="stroke: #000000; stroke-width: 0.8"/><text style="font-size: 8px; font-family: sans-serif" transform="translate(213.4 244.6) rotate(-45)">rubric_score</text><use xlink:href="#m66a584b091" x="278" y="198.7" style="stroke: #000000; stroke-width: 0.8"/><text style="font-size: 8px; font-family: sans-serif" transform="translate(263.3 242.3) rotate(-45)">rubric_pass</text><defs><path id="m4cd4dcee34" d="M 0 0 L -3.5 0" style="stroke: #000000; stroke-width: 0.8"/></defs><use xlink:href="#m4cd4dcee34" x="51.6" y="189.3" style="stroke: #000000; stroke-width: 0.8"/><text style="font-size: 10px; font-family: sans-serif; text-anchor: end" x="44.6" y="193.1">-0.2</text><use xlink:href="#m4cd4dcee34" x="51.6" y="153.5" style="stroke: #000000; stroke-width: 0.8"/><text style="font-size: 10px; font-family: sans-serif; text-anchor: end" x="44.6" y="157.3">0.0</text><use xlink:href="#m4cd4dcee34" x="51.6" y="117.7" style="stroke: #000000; stroke-width: 0.8"/><text style="font-size: 10px; font-family: sans-serif; text-anchor: end" x="44.6" y="121.5">0.2</text><use xlink:href="#m4cd4dcee34" x="51.6" y="81.9" style="stroke: #000000; stroke-width: 0.8"/><text style="font-size: 10px; font-family: sans-serif; text-anchor: end" x="44.6" y="85.7">0.4</text><use xlink:href="#m4cd4dcee34" x="51.6" y="46.1" style="stroke: #000000; stroke-width: 0.8"/><text style="font-size: 10px; font-family: sans-serif; text-anchor: end" x="44.6" y="49.9">0.6</text><text style="font-size: 10px; font-family: sans-serif; text-anchor: middle" x="18.6" y="111.7" transform="rotate(-90 18.6 111.7)">candidate - reference</text><path d="M 51.6 153.5 L 309.2 153.5" style="fill: none; stroke: #333333; stroke-width: 0.8; stroke-linecap: square"/><path d="M 51.6 162.5 L 309.2 162.5" style="fill: none; stroke-dasharray: 2.96,1.28; stroke-dashoffset: 0; stroke: #e76f51; stroke-width: 0.8"/><path d="M 51.6 198.7 L 51.6 24.7" style="fill: none; stroke: #000000; stroke-width: 0.8; stroke-linejoin: miter; stroke-linecap: square"/><path d="M 309.2 198.7 L 309.2 24.7" style="fill: none; stroke: #000000; stroke-width: 0.8; stroke-linejoin: miter; stroke-linecap: square"/><path d="M 51.6 198.7 L 309.2 198.7" style="fill: none; stroke: #000000; stroke-width: 0.8; stroke-linejoin: miter; stroke-linecap: square"/><path d="M 51.6 24.7 L 309.2 24.7" style="fill: none; stroke: #000000; stroke-width: 0.8; stroke-linejoin: miter; stroke-linecap: square"/><text style="font-size: 9px; font-family: sans-serif; text-anchor: middle" x="180.4" y="18.7">rag_top1 vs baseline_random</text><path d="M 323.5 198.7 L 581.2 198.7 L 581.2 24.7 L 323.5 24.7 z" style="fill: #ffffff"/><path d="M 335.3 153.5 L 374.3 153.5 L 374.3 138.6 L 335.3 138.6 z" style="fill: #2a9d8f; stroke: #222222; stroke-linejoin: miter"/><path d="M 384.1 153.5 L 423.1 153.5 L 423.1 126.7 L 384.1 126.7 z" style="fill: #2a9d8f; stroke: #222222; stroke-linejoin: miter"/><path d="M 432.9 153.5 L 471.9 153.5 L 471.9 190.8 L 432.9 190.8 z" style="fill: #e76f51; stroke: #222222; stroke-linejoin: miter"/><path d="M 481.7 153.5 L 520.7 153.5 L 520.7 161 L 481.7 161 z" style="fill: #e76f51; stroke: #222222; stroke-linejoin: miter"/><path d="M 530.5 153.5 L 569.5 153.5 L 569.5 153.5 L 530.5 153.5 z" style="fill: #2a9d8f; stroke: #222222; stroke-linejoin: miter"/><use xlink:href="#m66a584b091" x="354.8" y="198.7" style="stroke: #000000; stroke-width: 0.8"/><text style="font-size: 8px; font-family: sans-serif" transform="translate(338.1 246.3) rotate(-45)">exact_match</text><use xlink:href="#m66a584b091" x="403.6" y="198.7" style="stroke: #000000; stroke-width: 0.8"/><text style="font-size: 8px; font-family: sans-serif" transform="translate(392.9 234.3) rotate(-45)">token_f1</text><use xlink:href="#m66a584b091" x="452.4" y="198.7" style="stroke: #000000; stroke-width: 0.8"/><text style="font-size: 8px; font-family: sans-serif" transform="translate(441.9 234) rotate(-45)">contains</text><use xlink:href="#m66a584b091" x="501.2" y="198.7" style="stroke: #000000; stroke-width: 0.8"/><text style="font-size: 8px; font-family: sans-serif" transform="translate(485.4 244.6) rotate(-45)">rubric_score</text><use xlink:href="#m66a584b091" x="550" y="198.7" style="stroke: #000000; stroke-width: 0.8"/><text style="font-size: 8px; font-family: sans-serif" transform="translate(535.3 242.3) rotate(-45)">rubric_pass</text><use xlink:href="#m4cd4dcee34" x="323.5" y="189.3" style="stroke: #000000; stroke-width: 0.8"/><use xlink:href="#m4cd4dcee34" x="323.5" y="153.5" style="stroke: #000000; stroke-width: 0.8"/><use xlink:href="#m4cd4dcee34" x="323.5" y="117.7" style="stroke: #000000; stroke-width: 0.8"/><use xlink:href="#m4cd4dcee34" x="323.5" y="81.9" style="stroke: #000000; stroke-width: 0.8"/><use xlink:href="#m4cd4dcee34" x="323.5" y="46.1" style="stroke: #000000; stroke-width: 0.8"/><path d="M 323.5 153.5 L 581.2 153.5" style="fill: none; stroke: #333333; stroke-width: 0.8; stroke-linecap: square"/><path d="M 323.5 162.5 L 581.2 162.5" style="fill: none; stroke-dasharray: 2.96,1.28; stroke-dashoffset: 0; stroke: #e76f51; stroke-width: 0.8"/><path d="M 323.5 198.7 L 323.5 24.7" style="fill: none; stroke: #000000; stroke-width: 0.8; stroke-linejoin: miter; stroke-linecap: square"/><path d="M 581.2 198.7 L 581.2 24.7" style="fill: none; stroke: #000000; stroke-width: 0.8; stroke-linejoin: miter; stroke-linecap: square"/><path d="M 323.5 198.7 L 581.2 198.7" style="fill: none; stroke: #000000; stroke-width: 0.8; stroke-linejoin: miter; stroke-linecap: square"/><path d="M 323.5 24.7 L 581.2 24.7" style="fill: none; stroke: #000000; stroke-width: 0.8; stroke-linejoin: miter; stroke-linecap: square"/><text style="font-size: 9px; font-family: sans-serif; text-anchor: middle" x="452.4" y="18.7">rag_top1_span vs rag_top1</text><path d="M 595.5 198.7 L 853.2 198.7 L 853.2 24.7 L 595.5 24.7 z" style="fill: #ffffff"/><path d="M 607.2 153.5 L 646.3 153.5 L 646.3 153.5 L 607.2 153.5 z" style="fill: #2a9d8f; stroke: #222222; stroke-linejoin: miter"/><path d="M 656 153.5 L 695.1 153.5 L 695.1 165.7 L 656 165.7 z" style="fill: #e76f51; stroke: #222222; stroke-linejoin: miter"/><path d="M 704.8 153.5 L 743.9 153.5 L 743.9 116.2 L 704.8 116.2 z" style="fill: #2a9d8f; stroke: #222222; stroke-linejoin: miter"/><path d="M 753.6 153.5 L 792.7 153.5 L 792.7 120.7 L 753.6 120.7 z" style="fill: #2a9d8f; stroke: #222222; stroke-linejoin: miter"/><path d="M 802.4 153.5 L 841.5 153.5 L 841.5 116.2 L 802.4 116.2 z" style="fill: #2a9d8f; stroke: #222222; stroke-linejoin: miter"/><use xlink:href="#m66a584b091" x="626.8" y="198.7" style="stroke: #000000; stroke-width: 0.8"/><text style="font-size: 8px; font-family: sans-serif" transform="translate(610.1 246.3) rotate(-45)">exact_match</text><use xlink:href="#m66a584b091" x="675.6" y="198.7" style="stroke: #000000; stroke-width: 0.8"/><text style="font-size: 8px; font-family: sans-serif" transform="translate(664.9 234.3) rotate(-45)">token_f1</text><use xlink:href="#m66a584b091" x="724.4" y="198.7" style="stroke: #000000; stroke-width: 0.8"/><text style="font-size: 8px; font-family: sans-serif" transform="translate(713.9 234) rotate(-45)">contains</text><use xlink:href="#m66a584b091" x="773.2" y="198.7" style="stroke: #000000; stroke-width: 0.8"/><text style="font-size: 8px; font-family: sans-serif" transform="translate(757.4 244.6) rotate(-45)">rubric_score</text><use xlink:href="#m66a584b091" x="822" y="198.7" style="stroke: #000000; stroke-width: 0.8"/><text style="font-size: 8px; font-family: sans-serif" transform="translate(807.3 242.3) rotate(-45)">rubric_pass</text><use xlink:href="#m4cd4dcee34" x="595.5" y="189.3" style="stroke: #000000; stroke-width: 0.8"/><use xlink:href="#m4cd4dcee34" x="595.5" y="153.5" style="stroke: #000000; stroke-width: 0.8"/><use xlink:href="#m4cd4dcee34" x="595.5" y="117.7" style="stroke: #000000; stroke-width: 0.8"/><use xlink:href="#m4cd4dcee34" x="595.5" y="81.9" style="stroke: #000000; stroke-width: 0.8"/><use xlink:href="#m4cd4dcee34" x="595.5" y="46.1" style="stroke: #000000; stroke-width: 0.8"/><path d="M 595.5 153.5 L 853.2 153.5" style="fill: none; stroke: #333333; stroke-width: 0.8; stroke-linecap: square"/><path d="M 595.5 162.5 L 853.2 162.5" style="fill: none; stroke-dasharray: 2.96,1.28; stroke-dashoffset: 0; stroke: #e76f51; stroke-width: 0.8"/><path d="M 595.5 198.7 L 595.5 24.7" style="fill: none; stroke: #000000; stroke-width: 0.8; stroke-linejoin: miter; stroke-linecap: square"/><path d="M 853.2 198.7 L 853.2 24.7" style="fill: none; stroke: #000000; stroke-width: 0.8; stroke-linejoin: miter; stroke-linecap: square"/><path d="M 595.5 198.7 L 853.2 198.7" style="fill: none; stroke: #000000; stroke-width: 0.8; stroke-linejoin: miter; stroke-linecap: square"/><path d="M 595.5 24.7 L 853.2 24.7" style="fill: none; stroke: #000000; stroke-width: 0.8; stroke-linejoin: miter; stroke-linecap: square"/><text style="font-size: 9px; font-family: sans-serif; text-anchor: middle" x="724.4" y="18.7">rag_top3_concat vs rag_top1</text></svg>
